<svg width="14" height="14" viewBox="0 0 14 14" fill="none" xmlns="http://www.w3.org/2000/svg">
<rect x="0.209457" y="0.132187" width="13.5361" height="13.5361" rx="6.76806" fill="#CB6686"/>
<g clip-path="url(#clip0_1_405)">
<path fill-rule="evenodd" clip-rule="evenodd" d="M6.01596 4.78526L8.90007 4.78526C8.95107 4.78526 8.99997 4.80552 9.03603 4.84158C9.07209 4.87764 9.09235 4.92654 9.09235 4.97754V7.86165C9.09235 7.96784 9.00626 8.05393 8.90007 8.05393C8.79388 8.05393 8.7078 7.96784 8.7078 7.86165V5.44173L5.19055 8.95898C5.11546 9.03407 4.99372 9.03407 4.91863 8.95898C4.84354 8.88389 4.84354 8.76215 4.91863 8.68707L8.43588 5.16981L6.01596 5.16981C5.90977 5.16981 5.82368 5.08373 5.82368 4.97754C5.82368 4.87135 5.90977 4.78526 6.01596 4.78526Z" fill="white"/>
</g>
<defs>
<clipPath id="clip0_1_405">
<rect width="6.15278" height="6.15278" fill="white" transform="translate(3.90104 3.82388)"/>
</clipPath>
</defs>
</svg>
