<svg width="7" height="7" viewBox="0 0 7 7" fill="none" xmlns="http://www.w3.org/2000/svg">
<path d="M2.87009 0.667777C3.0015 0.443625 3.32555 0.443626 3.45696 0.667777L4.19194 1.92141C4.23989 2.00321 4.31982 2.06128 4.41244 2.08162L5.83184 2.39322C6.08563 2.44894 6.18576 2.75712 6.01319 2.95137L5.04803 4.03777C4.98505 4.10866 4.95452 4.20262 4.96381 4.29698L5.10607 5.7432C5.13151 6.00179 4.86935 6.19226 4.63128 6.08816L3.2998 5.50595C3.21292 5.46796 3.11413 5.46796 3.02725 5.50595L1.69577 6.08816C1.4577 6.19226 1.19555 6.00179 1.22098 5.7432L1.36325 4.29698C1.37253 4.20262 1.342 4.10866 1.27902 4.03777L0.313864 2.95137C0.141292 2.75712 0.241427 2.44894 0.495218 2.39322L1.91462 2.08162C2.00723 2.06128 2.08716 2.00321 2.13512 1.92141L2.87009 0.667777Z" fill="#FFCE22"/>
</svg>
