<svg width="6" height="5" viewBox="0 0 6 5" fill="none" xmlns="http://www.w3.org/2000/svg">
<path d="M3.92992 0.0565921V0.055542H4.20332L4.30322 0.0754935C4.36981 0.0884462 4.43028 0.105421 4.48461 0.126422C4.53894 0.147424 4.59151 0.171927 4.64234 0.199928C4.69316 0.227928 4.73925 0.256459 4.78062 0.285509C4.82163 0.314213 4.85843 0.344665 4.89103 0.376866C4.92327 0.409419 4.97357 0.417819 5.04192 0.402068C5.11027 0.386317 5.18387 0.364438 5.26274 0.336438C5.3416 0.308438 5.4196 0.276935 5.49671 0.241931C5.57382 0.206927 5.62079 0.184702 5.63762 0.175251C5.65409 0.165454 5.66285 0.160203 5.6639 0.1595L5.66495 0.157925L5.67021 0.155299L5.67547 0.152674L5.68072 0.150049L5.68598 0.147424L5.68703 0.145849L5.68861 0.144799L5.69019 0.143749L5.69124 0.142173L5.6965 0.140598L5.70175 0.139548L5.70071 0.147424L5.69912 0.155299L5.6965 0.163175L5.69387 0.171051L5.69124 0.176301L5.68861 0.181551L5.68598 0.189427C5.68423 0.194677 5.68248 0.201676 5.68072 0.210429C5.67897 0.219181 5.66232 0.25418 5.63078 0.315436C5.59923 0.376693 5.5598 0.438821 5.51248 0.501825C5.46516 0.56483 5.42275 0.61243 5.38525 0.644636C5.34739 0.677189 5.32233 0.699939 5.31006 0.712891C5.29779 0.726191 5.2829 0.73844 5.26537 0.749644L5.23908 0.76697L5.23382 0.769596L5.22856 0.772221L5.22752 0.773796L5.22594 0.774846L5.22436 0.775896L5.22331 0.777471L5.21805 0.780096L5.21279 0.782721L5.21175 0.784297L5.21016 0.785347L5.20859 0.786397L5.20753 0.787972L5.20649 0.789547L5.2049 0.790597L5.20333 0.791647L5.20228 0.793222H5.22856L5.37578 0.76172C5.47392 0.740718 5.56768 0.715343 5.65706 0.685589L5.79902 0.638336L5.81479 0.633085L5.82268 0.63046L5.82794 0.627835L5.8332 0.62521L5.83845 0.622584L5.84371 0.619959L5.85423 0.618384L5.86474 0.617334V0.627835L5.86211 0.628885L5.85948 0.63046L5.85844 0.632035L5.85685 0.633085L5.85528 0.634135L5.85423 0.63571L5.85318 0.637286L5.8516 0.638336L5.85002 0.639386L5.84897 0.640961L5.84792 0.642536L5.84634 0.643586L5.84371 0.648836L5.84108 0.654087L5.8395 0.655137C5.8388 0.656187 5.81655 0.685936 5.77273 0.744394C5.72892 0.803198 5.70526 0.832947 5.70175 0.83365C5.69825 0.8347 5.69334 0.839951 5.68703 0.849401C5.68108 0.859199 5.64392 0.89823 5.57557 0.966485C5.50722 1.03474 5.44028 1.09547 5.37473 1.14867C5.30884 1.20223 5.27554 1.26803 5.27484 1.34609C5.27379 1.42379 5.26975 1.51165 5.26274 1.60966C5.25573 1.70767 5.24259 1.81355 5.22331 1.92731C5.20403 2.04107 5.17424 2.1697 5.13393 2.31321C5.09362 2.45672 5.04455 2.59673 4.98671 2.73324C4.92888 2.86975 4.86841 2.99226 4.80532 3.10077C4.74223 3.20928 4.6844 3.30116 4.63182 3.37642C4.57924 3.45167 4.52579 3.52255 4.47146 3.58906C4.41713 3.65556 4.34844 3.73047 4.26537 3.81377C4.18194 3.89673 4.13638 3.94223 4.12867 3.95028C4.12061 3.95799 4.08626 3.98669 4.02561 4.03639C3.96533 4.08644 3.90048 4.13649 3.83108 4.18655C3.76203 4.23626 3.69859 4.27774 3.64075 4.31099C3.58292 4.34424 3.51317 4.38221 3.4315 4.42492C3.35018 4.46797 3.2622 4.50788 3.16756 4.54463C3.07292 4.58138 2.97303 4.61551 2.86788 4.64701C2.76272 4.67851 2.66108 4.70302 2.56293 4.72052C2.46479 4.73802 2.3535 4.7529 2.22907 4.76514L2.04242 4.78352V4.78615H1.70067V4.78352L1.65598 4.7809C1.62619 4.77915 1.60166 4.77739 1.58238 4.77565C1.5631 4.7739 1.49037 4.76427 1.36418 4.74677C1.238 4.72927 1.13898 4.71176 1.06713 4.69426C0.995275 4.67676 0.888366 4.64351 0.746409 4.59451C0.604453 4.54551 0.483001 4.49597 0.382054 4.44592C0.281459 4.39622 0.218367 4.36471 0.192778 4.35141C0.167541 4.33846 0.13915 4.32236 0.107604 4.30311L0.0602849 4.27423L0.0592386 4.27266L0.057656 4.27161L0.0560788 4.27056L0.0550272 4.26898L0.0497696 4.26636L0.0445119 4.26373L0.0434656 4.26216L0.0418831 4.26111L0.0403058 4.26006L0.0392542 4.25848L0.038208 4.25691L0.0366254 4.25586H0.0339966V4.24536L0.0392542 4.24641L0.0445119 4.24798L0.0681714 4.25061C0.0839443 4.25235 0.126884 4.25498 0.196984 4.25848C0.26709 4.26198 0.34157 4.26198 0.420435 4.25848C0.499299 4.25498 0.57992 4.2471 0.662287 4.23486C0.744659 4.22261 0.841925 4.2016 0.954087 4.17185C1.06625 4.1421 1.1693 4.10675 1.26324 4.06579C1.35683 4.02449 1.42342 3.99369 1.46303 3.97339C1.50229 3.95343 1.56222 3.91633 1.64284 3.86208L1.76377 3.7807L1.76482 3.77912L1.7664 3.77807L1.76798 3.77702L1.76902 3.77545L1.77008 3.77387L1.77165 3.77282L1.77324 3.77177L1.77428 3.7702L1.77954 3.76862L1.7848 3.76757L1.78585 3.76232L1.78743 3.75707L1.78901 3.75602L1.79005 3.75444L1.74799 3.75182C1.71995 3.75007 1.69279 3.74832 1.6665 3.74657C1.64021 3.74482 1.59903 3.73694 1.54294 3.72294C1.48687 3.70894 1.4264 3.68794 1.36156 3.65994C1.29671 3.63194 1.23362 3.59868 1.17228 3.56018C1.11094 3.52168 1.0666 3.48965 1.03926 3.4641C1.01227 3.43889 0.977221 3.40319 0.934108 3.35699C0.891347 3.31044 0.854191 3.26266 0.822646 3.21365C0.7911 3.16465 0.760957 3.10812 0.732219 3.04407L0.688575 2.94851L0.685946 2.94063L0.683318 2.93276L0.68174 2.92751L0.680689 2.92226L0.688575 2.92331L0.696462 2.92488L0.754296 2.93276C0.792856 2.93801 0.853319 2.93976 0.935685 2.93801C1.01806 2.93626 1.07501 2.93276 1.10656 2.92751C1.13811 2.92226 1.15738 2.91875 1.16439 2.91701L1.17491 2.91438L1.18805 2.91176L1.2012 2.90913L1.20225 2.90756L1.20383 2.90651L1.20541 2.90546L1.20645 2.90388L1.19594 2.90126L1.18542 2.89863L1.17491 2.896L1.16439 2.89338L1.15388 2.89075C1.14687 2.88901 1.1346 2.8855 1.11707 2.88025C1.09955 2.875 1.05223 2.85575 0.975118 2.8225C0.898009 2.78925 0.836668 2.75687 0.7911 2.72537C0.745418 2.69377 0.701862 2.65922 0.66071 2.62193C0.6197 2.58413 0.574663 2.53548 0.525588 2.47597C0.476518 2.41647 0.432706 2.34734 0.394146 2.26858C0.355592 2.18983 0.326675 2.11457 0.307395 2.04282C0.288193 1.97148 0.275524 1.89855 0.269545 1.82492L0.260076 1.71467L0.265334 1.71572L0.270591 1.71729L0.275849 1.71992L0.281107 1.72254L0.286364 1.72517L0.291622 1.72779L0.373116 1.76455C0.427448 1.78905 0.49492 1.81005 0.575536 1.82755C0.656156 1.84505 0.704348 1.85468 0.720121 1.85643L0.743781 1.85905H0.7911L0.790053 1.85748L0.788471 1.85643L0.786893 1.85538L0.785842 1.8538L0.784796 1.85223L0.783213 1.85118L0.781636 1.85013L0.780584 1.84855L0.775327 1.84593L0.770069 1.8433L0.769023 1.84173L0.76744 1.84068L0.765863 1.83963L0.764811 1.83805L0.759554 1.83543L0.754296 1.8328L0.75325 1.83123C0.752198 1.83052 0.737124 1.81932 0.708029 1.79762C0.679285 1.77557 0.649143 1.74705 0.617597 1.71204C0.586051 1.67704 0.554505 1.64028 0.522959 1.60178C0.491355 1.56319 0.463206 1.52191 0.438836 1.4784C0.414304 1.43465 0.388363 1.37899 0.361023 1.31144C0.334035 1.24423 0.313531 1.1765 0.299508 1.10825C0.285491 1.03999 0.277605 0.972612 0.275849 0.906106C0.274098 0.839599 0.275849 0.782721 0.281107 0.735468C0.286364 0.688214 0.29688 0.634834 0.312653 0.575331C0.328426 0.515828 0.351212 0.452824 0.381002 0.386317L0.425692 0.286559L0.428321 0.278684L0.43095 0.270808L0.432532 0.269758L0.433579 0.268183L0.43463 0.266608L0.436208 0.265558L0.43779 0.266608L0.438836 0.268183L0.439888 0.269758L0.441465 0.270808L0.443048 0.271858L0.444094 0.273433L0.445146 0.275008L0.446723 0.276059L0.449352 0.281309L0.451981 0.286559L0.453563 0.287609L0.454609 0.289184L0.525588 0.36794C0.572907 0.420444 0.62899 0.479075 0.693833 0.543829C0.758681 0.608582 0.794606 0.642184 0.801615 0.644636C0.808629 0.647435 0.817388 0.655483 0.827903 0.668788C0.838418 0.681741 0.873471 0.712718 0.933056 0.76172C0.992647 0.810722 1.07063 0.867605 1.16702 0.932358C1.26342 0.997111 1.37032 1.06099 1.48774 1.124C1.60516 1.187 1.73135 1.24388 1.86629 1.29463C2.00124 1.34539 2.09588 1.37864 2.1502 1.39439C2.20454 1.41014 2.29742 1.43027 2.42886 1.45477C2.5603 1.47928 2.65932 1.49503 2.72592 1.50203C2.79252 1.50902 2.83809 1.51305 2.86262 1.5141L2.89942 1.51515L2.89838 1.50728L2.89679 1.4994L2.88628 1.43377C2.87927 1.39002 2.87576 1.32876 2.87576 1.25001C2.87576 1.17125 2.8819 1.09862 2.89416 1.03212C2.90643 0.965608 2.92484 0.89823 2.94937 0.829975C2.97391 0.76172 2.99792 0.706937 3.0214 0.665638C3.04524 0.624685 3.07643 0.577956 3.11498 0.525452C3.15354 0.472948 3.20349 0.418696 3.26483 0.36269C3.32617 0.306684 3.39627 0.256805 3.47513 0.213054C3.554 0.169302 3.62673 0.136046 3.69333 0.113296C3.75993 0.0905464 3.81601 0.0756667 3.86157 0.068668C3.90714 0.0616692 3.92992 0.0576421 3.92992 0.0565921Z" fill="white"/>
</svg>
